# xmcd CD database file
#
# Track frame offsets:
#	150
#	14959
#	29991
#	44363
#	59044
#	76043
#	90846
#	104484
#	120030
#	133036
#	150186
#	165635
#	176090
#	193331
#	212168
#
# Disc length: 3043 seconds
#
# Revision: 1
# Processed by: cddbd v1.5.2PL0 Copyright (c) Steve Scherf et al.
# Submitted via: CDex 1.51
#
DISCID=cb0be10f
DTITLE=La Arrolladora Banda El Limón - Antología Musical
DYEAR=2012
DGENRE=Banda
TTITLE0=Todo depende de ti
TTITLE1=No supe cuidarte
TTITLE2=Y que quede claro
TTITLE3=De ti exclusivo
TTITLE4=Entrégame tu amor
TTITLE5=Tu historia fue conmigo
TTITLE6=Cuanto me cuesta
TTITLE7=El vaso derrama
TTITLE8=En los puritos huesos
TTITLE9=La escencia de tu vida
TTITLE10=La calabaza
TTITLE11=Evítame la pena
TTITLE12=El precio de mis errores
TTITLE13=Rasgos de inocencia
TTITLE14=Más adelante
EXTD=YEAR: 2012
EXTT0=
EXTT1=
EXTT2=
EXTT3=
EXTT4=
EXTT5=
EXTT6=
EXTT7=
EXTT8=
EXTT9=
EXTT10=
EXTT11=
EXTT12=
EXTT13=
EXTT14=
PLAYORDER=
